<svg width="512" height="512" viewBox="0 0 512 512" fill="none" xmlns="http://www.w3.org/2000/svg">
<rect width="512" height="512"/>
<path d="M504.276 462.799H67.3059C63.0399 462.799 59.5817 459.34 59.5817 455.074C59.5817 450.808 63.0399 447.35 67.3059 447.35H496.552V65.5572H73.5227C69.2568 65.5572 65.7985 62.099 65.7985 57.833C65.7985 53.5671 69.2568 50.1089 73.5227 50.1089H504.276C508.542 50.1089 512 53.5671 512 57.833V455.074C512 459.34 508.542 462.799 504.276 462.799Z" fill="#ffffffe6"/>
<path d="M67.3059 462.799C30.9903 462.799 1.30097 434.366 0.0419312 398.944C0.0143449 398.679 0 398.409 0 398.136V396.597C0 395.826 0.113654 395.081 0.32331 394.377C3.072 373.492 20.3046 357.583 40.8817 357.583C50.3371 357.583 58.965 360.852 65.7986 366.43V57.0253C65.7986 52.7594 69.2568 49.3011 73.5228 49.3011C77.7887 49.3011 81.2469 52.7594 81.2469 57.0253V398.136C81.2469 402.319 77.9189 405.74 73.739 405.857C69.5503 405.996 66.0447 402.746 65.8108 398.57C64.9931 384.011 54.2764 373.032 40.8817 373.032C27.5774 373.032 16.5065 383.983 15.4681 398.057C16.2615 425.37 39.211 447.35 67.3059 447.35C71.5719 447.35 75.0301 450.808 75.0301 455.074C75.0301 459.34 71.5719 462.799 67.3059 462.799Z" fill="#ffffffe6"/>
<path d="M73.5228 405.412C69.2568 405.412 65.7986 401.953 65.7986 397.687V59.0744C65.7986 43.6934 54.8546 31.6449 40.8817 31.6449C26.8579 31.646 15.4483 43.9505 15.4483 59.0744V397.687C15.4483 401.953 11.9901 405.412 7.72414 405.412C3.45821 405.412 0 401.953 0 397.687V59.0744C0 35.4319 18.3404 16.1966 40.8828 16.1966C63.5167 16.1966 81.248 35.0303 81.248 59.0744V397.687C81.2469 401.953 77.7898 405.412 73.5228 405.412Z" fill="#ffffffe6"/>
<path d="M432.555 430.059C407.183 430.059 386.542 409.418 386.542 384.047C386.542 358.675 407.183 338.033 432.555 338.033C457.927 338.033 478.569 358.675 478.569 384.047C478.569 409.418 457.927 430.059 432.555 430.059ZM432.555 353.481C415.702 353.481 401.991 367.194 401.991 384.047C401.991 400.9 415.702 414.611 432.555 414.611C449.408 414.611 463.121 400.9 463.121 384.047C463.121 367.194 449.408 353.481 432.555 353.481Z" fill="#ffffffe6"/>
<path d="M349.608 460.22C348.195 460.22 346.765 459.832 345.484 459.02C341.879 456.739 340.808 451.966 343.09 448.363L357.354 425.833C354.141 420.074 351.619 413.987 349.817 407.645L323.84 401.842C320.31 401.053 317.8 397.92 317.8 394.303V373.789C317.8 370.172 320.31 367.039 323.841 366.25L349.82 360.448C351.616 354.14 354.138 348.054 357.359 342.266L343.09 319.729C341.156 316.675 341.598 312.691 344.153 310.135L358.645 295.644C361.204 293.087 365.195 292.647 368.247 294.584L390.768 308.882C396.493 305.685 402.578 303.157 408.952 301.326L414.76 275.329C415.549 271.799 418.681 269.289 422.298 269.289H442.813C446.43 269.289 449.562 271.799 450.351 275.33L456.158 301.326C462.532 303.155 468.62 305.684 474.343 308.882L496.863 294.584C500.466 292.3 505.238 293.365 507.524 296.966C509.81 300.568 508.744 305.341 505.143 307.627L478.606 324.474C476.072 326.082 472.836 326.077 470.308 324.461C463.505 320.116 455.978 316.987 447.938 315.159C445.028 314.497 442.762 312.222 442.111 309.31L436.622 284.737H428.487L422.998 309.311C422.347 312.222 420.078 314.497 417.171 315.159C409.132 316.986 401.607 320.116 394.802 324.461C392.274 326.077 389.038 326.08 386.504 324.474L365.192 310.944L359.448 316.688L372.942 338.002C374.539 340.523 374.54 343.74 372.944 346.262C368.548 353.213 365.429 360.736 363.677 368.626C363.027 371.55 360.745 373.836 357.82 374.488L333.247 379.977V388.113L357.821 393.601C360.744 394.256 363.027 396.54 363.677 399.464C365.444 407.416 368.558 414.934 372.933 421.808C374.54 424.332 374.545 427.559 372.943 430.087L356.141 456.625C354.671 458.949 352.167 460.22 349.608 460.22Z" fill="#ffffffe6"/>
<path d="M140.138 418.257C123.71 418.257 110.345 404.892 110.345 388.464C110.345 372.035 123.71 358.67 140.138 358.67C156.566 358.67 169.931 372.035 169.931 388.464C169.931 404.892 156.566 418.257 140.138 418.257ZM140.138 374.119C132.228 374.119 125.793 380.554 125.793 388.464C125.793 396.373 132.228 402.808 140.138 402.808C148.048 402.808 154.483 396.373 154.483 388.464C154.483 380.554 148.048 374.119 140.138 374.119Z" fill="#ffffffe6"/>
<path d="M140.138 153.429C123.71 153.429 110.345 140.064 110.345 123.636C110.345 107.208 123.71 93.8429 140.138 93.8429C156.566 93.8429 169.931 107.208 169.931 123.636C169.931 140.064 156.566 153.429 140.138 153.429ZM140.138 109.291C132.228 109.291 125.793 115.726 125.793 123.636C125.793 131.546 132.228 137.981 140.138 137.981C148.048 137.981 154.483 131.546 154.483 123.636C154.483 115.726 148.048 109.291 140.138 109.291Z" fill="#ffffffe6"/>
<path d="M140.138 341.015C135.872 341.015 132.414 337.557 132.414 333.291V189.843C132.414 185.577 135.872 182.119 140.138 182.119C144.404 182.119 147.862 185.577 147.862 189.843V333.291C147.862 337.557 144.404 341.015 140.138 341.015Z" fill="#ffffffe6"/>
<path d="M162.207 219.636C160.23 219.636 158.253 218.881 156.745 217.374L140.138 200.766L123.531 217.373C120.515 220.389 115.624 220.389 112.608 217.373C109.591 214.357 109.591 209.465 112.608 206.45L134.677 184.381C137.693 181.365 142.584 181.365 145.6 184.381L167.669 206.45C170.686 209.465 170.686 214.357 167.669 217.373C166.161 218.881 164.184 219.636 162.207 219.636Z" fill="#ffffffe6"/>
<path d="M258.207 153.429C256.229 153.429 254.253 152.674 252.745 151.167L230.676 129.098C227.659 126.082 227.659 121.191 230.676 118.175L252.745 96.1062C255.761 93.0904 260.652 93.0904 263.668 96.1062C266.685 99.1219 266.685 104.013 263.668 107.029L247.061 123.636L263.668 140.243C266.685 143.259 266.685 148.15 263.668 151.166C262.161 152.674 260.184 153.429 258.207 153.429Z" fill="#ffffffe6"/>
<path d="M434.765 241.706C431.966 241.707 429.265 240.18 427.893 237.521C402.455 188.182 362.743 155.316 309.856 139.838C270.035 128.183 237.242 131.288 236.916 131.32C232.687 131.755 228.886 128.656 228.457 124.414C228.026 120.172 231.11 116.386 235.35 115.952C236.786 115.805 270.989 112.492 313.598 124.837C353.06 136.271 407.305 163.872 441.623 230.44C443.577 234.232 442.089 238.89 438.297 240.845C437.166 241.43 435.957 241.706 434.765 241.706Z" fill="#ffffffe6"/>
</svg>
