<?xml version="1.0" standalone="no"?>
<!DOCTYPE svg PUBLIC "-//W3C//DTD SVG 20010904//EN"
 "http://www.w3.org/TR/2001/REC-SVG-20010904/DTD/svg10.dtd">
<svg version="1.0" xmlns="http://www.w3.org/2000/svg"
 width="700.000000pt" height="700.000000pt" viewBox="0 0 700.000000 700.000000"
 preserveAspectRatio="xMidYMid meet">
<metadata>
Created by potrace 1.11, written by Peter Selinger 2001-2013
</metadata>
<g transform="translate(0.000000,700.000000) scale(0.100000,-0.100000)"
fill="#000000" stroke="none">
<path d="M430 6760 c-90 -24 -126 -42 -195 -92 -95 -70 -167 -176 -212 -308
-17 -53 -18 -152 -18 -2470 0 -1328 3 -2435 7 -2460 32 -213 171 -437 358
-577 89 -67 244 -138 345 -157 17 -4 41 -9 55 -13 41 -11 6120 -13 6157 -1 18
5 42 22 53 38 20 28 20 36 20 2772 0 2706 0 2743 -20 2775 -11 20 -31 35 -50
40 -16 4 -1335 8 -2930 8 l-2900 0 -16 55 c-53 185 -197 333 -376 387 -77 23
-200 24 -278 3z m264 -225 c96 -45 161 -128 190 -240 14 -53 16 -295 16 -2177
0 -1165 -2 -2118 -4 -2118 -3 0 -26 13 -53 30 -110 68 -270 96 -398 68 -54
-11 -150 -53 -203 -88 l-32 -22 2 2149 3 2149 38 76 c88 179 274 252 441 173z
m6091 -1999 l0 -1569 -149 -94 -149 -94 -86 39 c-47 21 -104 44 -127 51 l-40
13 -19 91 c-11 51 -20 94 -20 97 -26 127 -49 201 -71 221 -25 23 -30 24 -210
24 l-184 0 -26 -27 c-21 -21 -33 -52 -55 -150 -31 -132 -38 -164 -48 -217 -6
-33 -11 -36 -91 -68 -47 -18 -103 -43 -126 -55 l-41 -21 -169 107 c-219 139
-205 140 -361 -16 -124 -122 -142 -148 -137 -192 1 -15 49 -101 105 -190 91
-144 100 -164 91 -186 -53 -126 -81 -196 -85 -210 -4 -16 -55 -33 -172 -56
-203 -40 -249 -60 -262 -112 -14 -56 -9 -336 6 -365 19 -36 38 -43 231 -86
100 -23 186 -44 191 -47 5 -3 9 -11 9 -18 0 -16 54 -150 75 -188 8 -14 15 -31
15 -37 0 -12 -168 -283 -181 -291 -4 -3 -880 -5 -1946 -5 l-1938 1 -78 22
c-267 76 -456 274 -511 540 -30 141 6 265 105 357 74 69 126 89 229 89 102 0
160 -24 230 -94 57 -56 88 -121 105 -219 11 -64 18 -80 45 -104 28 -25 39 -28
74 -24 29 4 49 15 69 37 l27 30 0 2289 c0 2136 1 2290 17 2293 9 2 1286 3
2837 3 l2821 -1 0 -1568z m-795 -1520 c11 -50 23 -101 25 -113 3 -13 7 -33 10
-45 3 -13 7 -35 10 -50 15 -81 42 -106 145 -132 41 -11 121 -43 178 -73 61
-31 117 -53 136 -53 19 0 51 13 81 33 28 19 87 57 133 86 l82 51 0 -918 0
-917 -919 0 -919 0 14 25 c8 14 32 52 54 85 61 94 90 146 94 172 3 15 -11 54
-39 107 -48 90 -77 164 -95 237 -22 89 -33 96 -240 142 l-184 42 1 40 c1 22 1
47 2 56 1 14 75 37 186 56 11 2 36 8 55 13 19 5 51 12 70 15 19 3 46 14 60 24
25 18 30 29 71 156 12 39 43 111 69 160 35 66 46 98 43 120 -2 16 -47 96 -99
178 -52 82 -94 151 -94 155 0 11 64 72 76 72 6 0 79 -43 160 -95 106 -67 158
-95 180 -95 18 0 72 21 127 50 53 27 129 59 169 70 101 30 115 36 132 62 12
18 53 182 91 358 2 8 4 16 4 18 1 2 26 2 56 1 l54 -2 21 -91z"/>
<path d="M1835 5708 c-119 -24 -229 -108 -279 -213 -35 -72 -48 -128 -45 -199
4 -97 29 -166 87 -239 150 -188 430 -204 602 -35 187 184 155 491 -68 631 -82
53 -203 75 -297 55z m184 -236 c166 -101 84 -366 -110 -356 -183 8 -256 248
-108 352 66 46 147 48 218 4z"/>
<path d="M3485 5704 c-34 -17 -337 -319 -354 -353 -8 -14 -10 -37 -6 -59 5
-29 38 -67 179 -208 188 -188 206 -199 271 -168 39 18 51 34 58 80 6 41 -8 65
-88 144 l-67 68 68 -3 c151 -8 288 -25 439 -56 550 -113 1002 -347 1360 -704
66 -66 149 -155 184 -198 83 -103 214 -299 282 -421 59 -107 82 -130 135 -128
59 2 104 48 104 104 0 28 -55 135 -138 268 -197 315 -451 589 -742 797 -415
298 -953 494 -1475 539 -38 3 -83 7 -100 9 -16 2 -48 3 -70 4 l-39 1 62 62
c89 87 103 122 71 183 -22 45 -88 63 -134 39z"/>
<path d="M1869 4500 c-21 -12 -325 -316 -345 -344 -30 -43 -8 -122 41 -144 60
-28 95 -13 183 76 29 28 54 52 57 52 3 0 5 -387 5 -860 0 -596 3 -866 11 -883
22 -49 90 -70 144 -45 58 26 56 -7 55 928 0 473 3 860 5 860 3 0 36 -30 73
-67 65 -66 68 -67 119 -68 56 0 79 15 100 65 21 53 0 85 -170 255 -89 89 -172
167 -184 173 -26 14 -72 15 -94 2z"/>
<path d="M1806 2079 c-111 -34 -206 -111 -252 -204 -32 -67 -36 -85 -40 -177
-6 -152 72 -290 206 -365 115 -65 264 -65 389 -1 92 47 187 173 206 273 7 39
7 132 0 170 -16 88 -102 208 -185 259 -94 59 -223 77 -324 45z m201 -220 c67
-32 98 -86 98 -169 0 -84 -32 -138 -103 -173 -174 -88 -357 114 -250 276 58
89 156 114 255 66z"/>
<path d="M5785 2364 c-225 -44 -422 -233 -480 -462 -113 -444 285 -860 735
-768 143 29 295 127 383 246 42 57 86 154 103 226 15 68 20 199 9 251 -17 72
-59 189 -74 203 -4 3 -13 18 -21 34 -25 48 -142 158 -211 199 -126 74 -293
101 -444 71z m262 -220 c326 -111 384 -550 98 -740 -278 -185 -644 11 -647
346 -1 195 143 371 335 410 56 11 156 3 214 -16z"/>
</g>
</svg>
